# xmcd
#
# Track frame offsets:
#	150
#	16809
#	34564
#	54060
#	77065
#	93672
#	110492
#	127257
#	145844
#	159967
#
# Disc length: 2371 seconds
#
# Revision: 14
# Processed by: cddbd v1.5.2PL0 Copyright (c) Steve Scherf et al.
# Submitted via: Jack! The Knife 20 Magnifico
#
DISCID=7509410a
DTITLE=Stormwitch - Eye Of The Storm
DYEAR=1989
DGENRE=Heavy Metal
TTITLE0=Paradise
TTITLE1=Heart Of Ice
TTITLE2=I Want You Around
TTITLE3=King In The Ring
TTITLE4=Tarred And Feathered
TTITLE5=Eye Of The Storm
TTITLE6=Another World Apart
TTITLE7=Steel In The Red Light
TTITLE8=Rondo A La Turca
TTITLE9=Take Me Home
EXTD=
EXTT0=
EXTT1=
EXTT2=
EXTT3=
EXTT4=
EXTT5=
EXTT6=
EXTT7=
EXTT8=
EXTT9=
PLAYORDER=
